<svg width="32" height="32" viewBox="0 0 32 32" fill="none" xmlns="http://www.w3.org/2000/svg">
  <rect width="32" height="32" rx="6" fill="#1a1a1a"/>
  <g clip-path="url(#clip0_favicon)">
    <!-- Simplified version of the new logo for favicon -->
    <path d="M28 3V16C28 18.2 26.2 20 24 20C21.8 20 20 18.2 20 16V3C20 0.8 21.8 -1 24 -1C26.2 -1 28 0.8 28 3Z" fill="#EE82EE"/>
    <path d="M22 3V16C22 20.4 25.6 24 30 24H31C31.6 24 32 23.6 32 23C32 22.4 31.6 22 31 22H30C27.8 22 26 20.2 26 18V3C26 0.8 24.2 -1 22 -1C19.8 -1 18 0.8 18 3Z" fill="#008000"/>
    <path d="M16 3V23C16 25.2 14.2 27 12 27C9.8 27 8 25.2 8 23V3C8 0.8 9.8 -1 12 -1C14.2 -1 16 0.8 16 3Z" fill="#FFA500"/>
    <path d="M10 12C10 9.8 11.2 7.8 13 6.4C14.8 5 17.2 5 19 6.4C20.8 7.8 22 9.8 22 12V23C22 25.2 20.2 27 18 27C15.8 27 14 25.2 14 23V12C14 8.7 12.1 5.4 9.1 2.4C6.1 -0.6 1.9 -0.6 -1.1 2.4L-2 4.3C-4.4 6.7 -6 10.1 -6 12C-6 14.2 -4.2 16 -2 16C0.2 16 2 14.2 2 12Z" fill="url(#paint0_linear_favicon)"/>
    <path d="M2 12C2 8.7 4.9 5.8 8.2 5.8C11.5 5.8 14.4 8.7 14.4 12C14.4 12.3 14.4 12.9 14.5 13.5C14.6 14.1 14.8 14.6 15 15C15.2 15.4 15.5 15.7 15.9 15.9C16.3 16.1 17.1 16.4 18 16.4C18.9 16.4 19.7 16.1 20.1 15.9C20.5 15.7 20.8 15.4 21 15C21.2 14.6 21.4 14.1 21.5 13.5C21.6 12.9 21.6 12.3 21.6 12C21.6 9.8 20.4 7.8 18.6 6.4C16.8 5 14.4 5 12.6 6.4C10.8 7.8 9.6 9.8 9.6 12V23C9.6 25.2 7.8 27 5.6 27C3.4 27 1.6 25.2 1.6 23V12C1.6 8.7 4.5 5.8 7.8 5.8C11.1 5.8 14 8.7 14 12Z" fill="#040462"/>
    <path d="M-6 3V16C-6 18.2 -7.8 20 -10 20C-12.2 20 -14 18.2 -14 16V3C-14 0.8 -12.2 -1 -10 -1C-7.8 -1 -6 0.8 -6 3Z" fill="#FF0000"/>
  </g>
  <defs>
    <linearGradient id="paint0_linear_favicon" x1="20" y1="8" x2="2" y2="20" gradientUnits="userSpaceOnUse">
      <stop stop-color="#0000FF"/>
      <stop offset="1" stop-color="#040448"/>
    </linearGradient>
    <clipPath id="clip0_favicon">
      <rect width="32" height="32" fill="white"/>
    </clipPath>
  </defs>
</svg>
